# xmcd
#
# Track frame offsets:
#	150
#	17010
#	34405
#	51036
#	64490
#	84870
#	100100
#	117707
#	130621
#	148968
#	166515
#	182516
#
# Disc length: 2682 seconds
# Revision: 0
# Processed by: cddbd v1.5.2PL0 Copyright (c) Steve Scherf et al.
# Submitted via: dBpowerAMP V12.0
#
DISCID=9e0a780c
DTITLE=Charlie Roth - I'm The Smile
DYEAR=2019
DGENRE=Country
TTITLE0=I'm the Smile
TTITLE1=Good Times
TTITLE2=Serenity
TTITLE3=Clean
TTITLE4=Gloves
TTITLE5=Say Never
TTITLE6=Where You'll Be
TTITLE7=Pretty Little Lights of Town
TTITLE8=The Possibilities of You
TTITLE9=My Chair
TTITLE10=Yankee Dime
TTITLE11=I'm the Smile (Reprise)
EXTD=
EXTT0=
EXTT1=
EXTT2=
EXTT3=
EXTT4=
EXTT5=
EXTT6=
EXTT7=
EXTT8=
EXTT9=
EXTT10=
EXTT11=
PLAYORDER=
